# xmcd
#
# Track frame offsets:
#	150
#	35401
#	67778
#	98993
#	133131
#	166062
#	200045
#	232688
#	268885
#	304700
#	322534
#
# Disc length: 4722 seconds
#
# Revision: 0
# Processed by: cddbd v1.4PL0 Copyright (c) Steve Scherf et al.
# Submitted via: EZCDDA 4.3.3.2
#
DISCID=8912700b
DTITLE=Various Artist - Pure MDMA vol. 0
DYEAR=1900
DGENRE=
TTITLE0=Navajo - Big Cheese
TTITLE1=Navajo - nn
TTITLE2=Navajo - Rock'n
TTITLE3=Navajo - Wardance-320
TTITLE4=Navajo - fat lucy
TTITLE5=Droidsect - The Box
TTITLE6=GMS vs DJ Dede - Whoosh
TTITLE7=Skazi - DMT
TTITLE8=Skazi Vs Manitu - Survive The Trip
TTITLE9=Navajo - WarDance RMX
TTITLE10=Deedrah - Re:Load(GMS Remix)
EXTD=
EXTT0=
EXTT1=
EXTT2=
EXTT3=
EXTT4=
EXTT5=
EXTT6=
EXTT7=
EXTT8=
EXTT9=
EXTT10=
PLAYORDER=
